<svg width="96" height="48" viewBox="0 0 96 48" fill="none" xmlns="http://www.w3.org/2000/svg">
<path d="M14.0221 37.8947H3.60107V8.49756H14.1082C17.0652 8.49756 19.6106 9.08607 21.7446 10.2631C23.8786 11.4306 25.5198 13.11 26.668 15.3014C27.8258 17.4928 28.4049 20.1148 28.4049 23.1674C28.4049 26.2297 27.8258 28.8611 26.668 31.0623C25.5198 33.2632 23.869 34.952 21.7159 36.129C19.5724 37.306 17.0078 37.8947 14.0221 37.8947ZM9.81637 32.5692H13.7637C15.6011 32.5692 17.1465 32.2441 18.4001 31.5933C19.6633 30.9329 20.6106 29.9138 21.2422 28.5359C21.8834 27.1482 22.2039 25.3588 22.2039 23.1674C22.2039 20.9952 21.8834 19.22 21.2422 17.842C20.6106 16.4641 19.668 15.4497 18.4145 14.799C17.1609 14.1483 15.6154 13.8229 13.7781 13.8229H9.81637V32.5692ZM32.8941 37.8947V15.8468H39.0091V37.8947H32.8941ZM35.9659 13.0047C35.0569 13.0047 34.2768 12.7033 33.6263 12.1004C32.9851 11.488 32.6645 10.7559 32.6645 9.90424C32.6645 9.06214 32.9851 8.33966 33.6263 7.73678C34.2768 7.12436 35.0569 6.81812 35.9659 6.81812C36.8751 6.81812 37.6502 7.12436 38.2914 7.73678C38.9419 8.33966 39.2673 9.06214 39.2673 9.90424C39.2673 10.7559 38.9419 11.488 38.2914 12.1004C37.6502 12.7033 36.8751 13.0047 35.9659 13.0047ZM52.0317 38.2534C50.357 38.2534 48.8402 37.8229 47.4813 36.9617C46.1323 36.0909 45.0604 34.8133 44.2661 33.129C43.4814 31.4354 43.0891 29.3588 43.0891 26.8994C43.0891 24.3732 43.4958 22.2727 44.3093 20.598C45.1225 18.9138 46.204 17.6555 47.5533 16.8229C48.912 15.9808 50.4 15.5597 52.0173 15.5597C53.2517 15.5597 54.2804 15.7703 55.1035 16.1913C55.9359 16.6028 56.6059 17.1196 57.1129 17.7416C57.6298 18.354 58.0221 18.9569 58.2902 19.5502H58.4766V8.49756H64.5772V37.8947H58.5484V34.3636H58.2902C58.0029 34.976 57.5962 35.5836 57.07 36.1866C56.5533 36.7798 55.8786 37.2727 55.0461 37.665C54.2231 38.0574 53.2183 38.2534 52.0317 38.2534ZM53.9694 33.3875C54.9552 33.3875 55.7876 33.1194 56.4672 32.5836C57.1561 32.0382 57.6824 31.2775 58.0461 30.3013C58.4193 29.3254 58.606 28.1818 58.606 26.8708C58.606 25.5597 58.4241 24.421 58.0603 23.4545C57.6968 22.488 57.1705 21.7416 56.4813 21.2153C55.7924 20.6889 54.9552 20.4258 53.9694 20.4258C52.9647 20.4258 52.1179 20.6985 51.4287 21.244C50.7398 21.7894 50.2183 22.5454 49.8642 23.5119C49.5102 24.4784 49.3331 25.5981 49.3331 26.8708C49.3331 28.153 49.5102 29.287 49.8642 30.2728C50.2279 31.2487 50.7494 32.0142 51.4287 32.5692C52.1179 33.1149 52.9647 33.3875 53.9694 33.3875Z" fill="#002BC6"/>
<path d="M77.3558 8.49756V37.8947H71.1406V8.49756H77.3558ZM94.082 15.8468V20.4401H80.8045V15.8468H94.082ZM83.8189 10.5645H89.9336V31.1196C89.9336 31.6842 90.0197 32.1243 90.192 32.4401C90.3643 32.7463 90.6036 32.9615 90.9097 33.0861C91.2255 33.2104 91.5891 33.2728 92.0006 33.2728C92.2876 33.2728 92.5748 33.2488 92.8618 33.2008C93.1488 33.1434 93.3691 33.1005 93.5222 33.0717L94.484 37.6218C94.1775 37.7176 93.747 37.8277 93.192 37.952C92.637 38.0862 91.9625 38.1675 91.1682 38.1961C89.6943 38.2534 88.4026 38.0574 87.2926 37.6077C86.1921 37.1578 85.3354 36.4592 84.7231 35.5119C84.1107 34.5645 83.8093 33.3683 83.8189 31.9235V10.5645Z" fill="#38F2B4"/>
</svg>
